<?xml version="1.0" encoding="UTF-8" standalone="no"?><!DOCTYPE svg PUBLIC "-//W3C//DTD SVG 1.1//EN" "http://www.w3.org/Graphics/SVG/1.1/DTD/svg11.dtd"><svg width="100%" height="100%" viewBox="0 0 4052 500" version="1.1" xmlns="http://www.w3.org/2000/svg" xmlns:xlink="http://www.w3.org/1999/xlink" xml:space="preserve" xmlns:serif="http://www.serif.com/" style="fill-rule:evenodd;clip-rule:evenodd;stroke-linejoin:round;stroke-miterlimit:1.41421;"><rect id="a3" x="1091.75" y="0" width="75" height="499.996" style="fill:#fff;"/><rect id="b3" x="1169.75" y="0" width="75" height="499.996" style="fill:#fff;"/><rect id="c3" x="1247.75" y="0" width="75" height="499.996" style="fill:#fff;"/><rect id="d3" x="1325.75" y="0" width="75" height="499.996" style="fill:#fff;"/><rect id="e3" x="1403.75" y="0" width="75" height="499.996" style="fill:#fff;"/><rect id="f3" x="1481.75" y="0" width="75" height="499.996" style="fill:#fff;"/><rect id="g3" x="1559.75" y="0" width="75" height="499.996" style="fill:#fff;"/><rect id="a2" x="545.741" y="0" width="75" height="499.996" style="fill:#fff;"/><rect id="b2" x="623.741" y="0" width="75" height="499.996" style="fill:#fff;"/><rect id="c2" x="701.741" y="0" width="75" height="499.996" style="fill:#fff;"/><rect id="d2" x="779.741" y="0" width="75" height="499.996" style="fill:#fff;"/><rect id="e2" x="857.741" y="0" width="75" height="499.996" style="fill:#fff;"/><rect id="f2" x="935.741" y="0" width="75" height="499.996" style="fill:#fff;"/><rect id="g2" x="1013.74" y="0" width="75" height="499.996" style="fill:#fff;"/><rect id="a0" x="0" y="0" width="75" height="499.996" style="fill:#fff;"/><rect id="b0" x="78" y="0" width="75" height="499.996" style="fill:#fff;"/><rect id="c1" x="156" y="0" width="75" height="499.996" style="fill:#fff;"/><rect id="d1" x="234" y="0" width="75" height="499.996" style="fill:#fff;"/><rect id="e1" x="312" y="0" width="75" height="499.996" style="fill:#fff;"/><rect id="f1" x="390" y="0" width="75" height="499.996" style="fill:#fff;"/><rect id="g1" x="468" y="0" width="75" height="499.996" style="fill:#fff;"/><rect id="a6" x="2729.06" y="0" width="75" height="499.996" style="fill:#fff;"/><rect id="b6" x="2807.06" y="0" width="75" height="499.996" style="fill:#fff;"/><rect id="c6" x="2885.06" y="0" width="75" height="499.996" style="fill:#fff;"/><rect id="d6" x="2963.06" y="0" width="75" height="499.996" style="fill:#fff;"/><rect id="e6" x="3041.06" y="0" width="75" height="499.996" style="fill:#fff;"/><rect id="f6" x="3119.06" y="0" width="75" height="499.996" style="fill:#fff;"/><rect id="g6" x="3197.06" y="0" width="75" height="499.996" style="fill:#fff;"/><rect id="a7" x="3275.11" y="0" width="75" height="499.996" style="fill:#fff;"/><rect id="b7" x="3353.11" y="0" width="75" height="499.996" style="fill:#fff;"/><rect id="c7" x="3431.11" y="0" width="75" height="499.996" style="fill:#fff;"/><rect id="d7" x="3509.11" y="0" width="75" height="499.996" style="fill:#fff;"/><rect id="e7" x="3587.11" y="0" width="75" height="499.996" style="fill:#fff;"/><rect id="f7" x="3665.11" y="0" width="75" height="499.996" style="fill:#fff;"/><rect id="g7" x="3743.11" y="0" width="75" height="499.996" style="fill:#fff;"/><rect id="a8" x="3820.73" y="0" width="75" height="499.996" style="fill:#fff;"/><rect id="b8" x="3898.73" y="0" width="75" height="499.996" style="fill:#fff;"/><rect id="c8" x="3976.73" y="0" width="75" height="499.996" style="fill:#fff;"/><rect id="a5" x="2183.06" y="0" width="75" height="499.996" style="fill:#fff;"/><rect id="b5" x="2261.06" y="0" width="75" height="499.996" style="fill:#fff;"/><rect id="c5" x="2339.06" y="0" width="75" height="499.996" style="fill:#fff;"/><rect id="d5" x="2417.06" y="0" width="75" height="499.996" style="fill:#fff;"/><rect id="e5" x="2495.06" y="0" width="75" height="499.996" style="fill:#fff;"/><rect id="f5" x="2573.06" y="0" width="75" height="499.996" style="fill:#fff;"/><rect id="g5" x="2651.06" y="0" width="75" height="499.996" style="fill:#fff;"/><rect id="a4" x="1637.32" y="0" width="75" height="499.996" style="fill:#fff;"/><rect id="b4" x="1715.32" y="0" width="75" height="499.996" style="fill:#fff;"/><rect id="c4" x="1793.32" y="0" width="75" height="499.996" style="fill:#fff;"/><rect id="d4" x="1871.32" y="0" width="75" height="499.996" style="fill:#fff;"/><rect id="e4" x="1949.32" y="0" width="75" height="499.996" style="fill:#fff;"/><rect id="f4" x="2027.32" y="0" width="75" height="499.996" style="fill:#fff;"/><rect id="g4" x="2105.32" y="0" width="75" height="499.996" style="fill:#fff;"/><rect id="b3f" x="1144.51" y="0" width="47.885" height="311.31" style="fill:#323232;"/><rect id="d3f" x="1300.48" y="0" width="47.885" height="311.31" style="fill:#323232;"/><rect id="e3f" x="1378.3" y="0" width="47.885" height="311.31" style="fill:#323232;"/><rect id="g3f" x="1534.41" y="0" width="47.885" height="311.31" style="fill:#323232;"/><rect id="a4f" x="1612.43" y="0" width="47.885" height="311.31" style="fill:#323232;"/><rect id="b2f" x="598.503" y="0" width="47.885" height="311.31" style="fill:#323232;"/><rect id="d2f" x="754.469" y="0" width="47.885" height="311.31" style="fill:#323232;"/><rect id="e2f" x="832.294" y="0" width="47.885" height="311.31" style="fill:#323232;"/><rect id="g2f" x="988.408" y="0" width="47.885" height="311.31" style="fill:#323232;"/><rect id="a3f" x="1066.42" y="0" width="47.885" height="311.31" style="fill:#323232;"/><rect id="b0f" x="52.762" y="0" width="47.885" height="311.31" style="fill:#323232;"/><rect id="d1f" x="208.728" y="0" width="47.885" height="311.31" style="fill:#323232;"/><rect id="e1f" x="286.553" y="0" width="47.885" height="311.31" style="fill:#323232;"/><rect id="g1f" x="442.666" y="0" width="47.885" height="311.31" style="fill:#323232;"/><rect id="a2f" x="520.681" y="0" width="47.885" height="311.31" style="fill:#323232;"/><rect id="b6f" x="2781.82" y="0" width="47.885" height="311.31" style="fill:#323232;"/><rect id="d6f" x="2937.79" y="0" width="47.885" height="311.31" style="fill:#323232;"/><rect id="e6f" x="3015.62" y="0" width="47.885" height="311.31" style="fill:#323232;"/><rect id="g6f" x="3171.73" y="0" width="47.885" height="311.31" style="fill:#323232;"/><rect id="a7f" x="3249.74" y="0" width="47.885" height="311.31" style="fill:#323232;"/><rect id="b7f" x="3327.87" y="0" width="47.885" height="311.31" style="fill:#323232;"/><rect id="d7f" x="3483.83" y="0" width="47.885" height="311.31" style="fill:#323232;"/><rect id="e7f" x="3561.66" y="0" width="47.885" height="311.31" style="fill:#323232;"/><rect id="g7f" x="3717.77" y="0" width="47.885" height="311.31" style="fill:#323232;"/><rect id="a8f" x="3795.79" y="0" width="47.885" height="311.31" style="fill:#323232;"/><rect id="b8f" x="3873.49" y="0" width="47.885" height="311.31" style="fill:#323232;"/><rect id="b5f" x="2235.82" y="0" width="47.885" height="311.31" style="fill:#323232;"/><rect id="d5f" x="2391.78" y="0" width="47.885" height="311.31" style="fill:#323232;"/><rect id="e5f" x="2469.61" y="0" width="47.885" height="311.31" style="fill:#323232;"/><rect id="g5f" x="2625.72" y="0" width="47.885" height="311.31" style="fill:#323232;"/><rect id="a6f" x="2703.74" y="0" width="47.885" height="311.31" style="fill:#323232;"/><rect id="b4f" x="1690.08" y="0" width="47.885" height="311.31" style="fill:#323232;"/><rect id="d4f" x="1846.04" y="0" width="47.885" height="311.31" style="fill:#323232;"/><rect id="e4f" x="1923.87" y="0" width="47.885" height="311.31" style="fill:#323232;"/><rect id="g4f" x="2079.98" y="0" width="47.885" height="311.31" style="fill:#323232;"/><rect id="a5f" x="2158" y="0" width="47.885" height="311.31" style="fill:#323232;"/></svg>